<svg width="34" height="27" viewBox="0 0 34 27" fill="none" xmlns="http://www.w3.org/2000/svg">
<path d="M11.1104 24.6973C11.1102 25.4219 10.5225 26.0096 9.79785 26.0098H1.75C1.02524 26.0098 0.437682 25.422 0.4375 24.6973V18.4443C0.4375 16.3408 0.821413 14.1619 1.58301 11.9102L1.58398 11.9082C2.36723 9.63687 3.4269 7.49499 4.7627 5.48438L4.76367 5.4834C5.98573 3.65391 7.34166 2.07725 8.83301 0.756836C9.27749 0.363301 9.92315 0.337262 10.4033 0.657227L14.8584 3.62598C15.4574 4.02514 15.6166 4.82506 15.2461 5.42773C14.122 7.25625 13.1628 9.15553 12.3711 11.127L12.3721 11.1279C11.5107 13.3056 11.0881 15.7185 11.1104 18.3711V24.6973ZM28.3574 24.6973C28.3572 25.422 27.7697 26.0098 27.0449 26.0098H18.998C18.2733 26.0098 17.6857 25.422 17.6855 24.6973V18.4443C17.6855 16.3408 18.0695 14.1619 18.8311 11.9102L18.832 11.9082C19.6153 9.63682 20.6749 7.49503 22.0107 5.48438L22.0117 5.4834C23.2338 3.65396 24.5897 2.07721 26.0811 0.756836C26.5254 0.363544 27.1703 0.337577 27.6504 0.657227L32.1055 3.62598C32.7045 4.02513 32.8646 4.82506 32.4941 5.42773C31.3701 7.25626 30.4109 9.15551 29.6191 11.127L29.6201 11.1279C28.7587 13.3056 28.3352 15.7185 28.3574 18.3711V24.6973Z" fill="url(#paint0_linear_2128_372)" stroke="#261772" stroke-width="0.875"/>
<defs>
<linearGradient id="paint0_linear_2128_372" x1="16.7279" y1="0.660156" x2="16.7279" y2="25.5719" gradientUnits="userSpaceOnUse">
<stop stop-color="#261772"/>
<stop offset="1" stop-color="white"/>
</linearGradient>
</defs>
</svg>
